<svg width="18" height="20" viewBox="0 0 18 20" fill="none" xmlns="http://www.w3.org/2000/svg">
<path d="M5.4 1H2.6C2.17565 1 1.76869 1.16857 1.46863 1.46863C1.16857 1.76869 1 2.17565 1 2.6V7.4C1 7.61011 1.04139 7.81817 1.12179 8.01229C1.2022 8.20641 1.32006 8.3828 1.46863 8.53137C1.6172 8.67994 1.79359 8.7978 1.98771 8.87821C2.18183 8.95861 2.38988 9 2.6 9H5.4C5.61011 9 5.81817 8.95861 6.01229 8.87821C6.20641 8.7978 6.3828 8.67994 6.53137 8.53137C6.67994 8.3828 6.7978 8.20641 6.87821 8.01229C6.95861 7.81817 7 7.61011 7 7.4V2.6C7 2.17565 6.83143 1.76869 6.53137 1.46863C6.23131 1.16857 5.82435 1 5.4 1ZM5.4 13H2.6C2.17565 13 1.76869 13.1686 1.46863 13.4686C1.16857 13.7687 1 14.1757 1 14.6V17.4C1 17.8243 1.16857 18.2313 1.46863 18.5314C1.76869 18.8314 2.17565 19 2.6 19H5.4C5.82435 19 6.23131 18.8314 6.53137 18.5314C6.83143 18.2313 7 17.8243 7 17.4V14.6C7 14.1757 6.83143 13.7687 6.53137 13.4686C6.23131 13.1686 5.82435 13 5.4 13ZM15.4 1H12.6C12.1757 1 11.7687 1.16857 11.4686 1.46863C11.1686 1.76869 11 2.17565 11 2.6V5.4C11 5.82435 11.1686 6.23131 11.4686 6.53137C11.7687 6.83143 12.1757 7 12.6 7H15.4C15.8243 7 16.2313 6.83143 16.5314 6.53137C16.8314 6.23131 17 5.82435 17 5.4V2.6C17 2.17565 16.8314 1.76869 16.5314 1.46863C16.2313 1.16857 15.8243 1 15.4 1ZM15.4 11H12.6C12.1757 11 11.7687 11.1686 11.4686 11.4686C11.1686 11.7687 11 12.1757 11 12.6V17.4C11 17.8243 11.1686 18.2313 11.4686 18.5314C11.7687 18.8314 12.1757 19 12.6 19H15.4C15.8243 19 16.2313 18.8314 16.5314 18.5314C16.8314 18.2313 17 17.8243 17 17.4V12.6C17 12.1757 16.8314 11.7687 16.5314 11.4686C16.2313 11.1686 15.8243 11 15.4 11Z" stroke="black" stroke-width="1.5" stroke-miterlimit="10" stroke-linejoin="round"/>
</svg>
